# xmcd
#
# Track frame offsets: 
#        150
#        19625
#        33025
#        52475
#        72412
#
# Disc length: 1254 seconds
#
# Revision: 0
# Processed by: cddbd v1.4PL0 Copyright (c) Steve Scherf et al.
# Submitted via: ExactAudioCopy v0.95a3
#
DISCID=3f04e405
DTITLE=王菲 - 玩具
DYEAR=1997
DGENRE=Pop
TTITLE0=暗涌
TTITLE1=玩具
TTITLE2=敷衍
TTITLE3=约定
TTITLE4=我信
EXTD=
EXTT0=
EXTT1=
EXTT2=
EXTT3=
EXTT4=
PLAYORDER=
